<?xml version="1.0" encoding="UTF-8" standalone="no"?>
<svg
   xmlns:dc="http://purl.org/dc/elements/1.1/"
   xmlns:cc="http://creativecommons.org/ns#"
   xmlns:rdf="http://www.w3.org/1999/02/22-rdf-syntax-ns#"
   xmlns:svg="http://www.w3.org/2000/svg"
   xmlns="http://www.w3.org/2000/svg"
   xmlns:sodipodi="http://sodipodi.sourceforge.net/DTD/sodipodi-0.dtd"
   xmlns:inkscape="http://www.inkscape.org/namespaces/inkscape"
   version="1.2"
   width="512"
   height="512"
   viewBox="0 0 14449.778 14449.778"
   preserveAspectRatio="xMidYMid"
   xml:space="preserve"
   id="svg2"
   inkscape:version="0.91 r13725"
   sodipodi:docname="mequanta_logo2.svg"
   style="fill-rule:evenodd;stroke-width:28.22200012;stroke-linejoin:round"
   inkscape:export-filename="C:\Users\leelu_000\Desktop\mequanta_logo2.png"
   inkscape:export-xdpi="43.689999"
   inkscape:export-ydpi="43.689999"><metadata
   id="metadata64"><rdf:RDF><cc:Work
       rdf:about=""><dc:format>image/svg+xml</dc:format><dc:type
         rdf:resource="http://purl.org/dc/dcmitype/StillImage" /><dc:title></dc:title></cc:Work></rdf:RDF></metadata><defs
   id="defs62" /><sodipodi:namedview
   pagecolor="#ffffff"
   bordercolor="#666666"
   borderopacity="1"
   objecttolerance="10"
   gridtolerance="10"
   guidetolerance="10"
   inkscape:pageopacity="0"
   inkscape:pageshadow="2"
   inkscape:window-width="1136"
   inkscape:window-height="595"
   id="namedview60"
   showgrid="false"
   inkscape:zoom="0.31716402"
   inkscape:cx="478.88696"
   inkscape:cy="306.70553"
   inkscape:window-x="50"
   inkscape:window-y="33"
   inkscape:window-maximized="0"
   inkscape:current-layer="svg2"
   units="px" />
 <g
   visibility="visible"
   id="MasterSlide_1_默认"
   style="visibility:visible"
   transform="translate(0,-6550.2214)">
  <desc
   id="desc5">Master slide
  </desc>
  <rect
   x="0"
   y="0"
   width="29700"
   height="21000"
   id="rect7"
   style="fill:none;stroke:none" />
 </g>
 <g
   visibility="visible"
   id="Slide_1_page1"
   style="visibility:visible"
   transform="matrix(0.71736457,0,0,0.68117062,-311.27928,107.93155)">
  <g
   id="DrawingGroup_1">
   <g
   id="DrawingGroup_2">
    <g
   id="g12">
     <path
   d="m 5975,16300 c -732,0 -1354,-160 -1987,-512 -634,-351 -1090,-788 -1455,-1397 -366,-609 -533,-1207 -533,-1909 0,-703 167,-1301 533,-1910 365,-609 821,-1046 1454,-1397 634,-352 1256,-512 1988,-512 732,0 1354,160 1987,512 634,351 1090,788 1455,1397 366,609 533,1207 533,1909 0,703 -167,1301 -533,1910 -365,609 -821,1046 -1454,1397 -634,352 -1256,512 -1988,512 l 0,0 z"
   id="path14"
   inkscape:connector-curvature="0"
   style="fill:#99ffcc;stroke:none" />
     <rect
   x="2000"
   y="8663"
   width="7951"
   height="7638"
   id="rect16"
   style="fill:none;stroke:none" />
    </g>
    <g
   id="g18">
     <path
   d="m 8603,12543 c -766,0 -1416,-173 -2079,-552 -664,-380 -1140,-852 -1523,-1509 -383,-657 -557,-1302 -557,-2060 0,-759 174,-1404 557,-2061 383,-657 859,-1129 1522,-1509 664,-379 1314,-552 2080,-552 766,0 1416,173 2079,552 664,380 1140,852 1523,1509 383,657 557,1302 557,2060 0,759 -174,1404 -557,2061 -383,657 -859,1129 -1522,1509 -664,379 -1314,552 -2080,552 l 0,0 z"
   id="path20"
   inkscape:connector-curvature="0"
   style="fill:#99ffcc;stroke:none" />
     <rect
   x="4444"
   y="4300"
   width="8319"
   height="8244"
   id="rect22"
   style="fill:none;stroke:none" />
    </g>
    <g
   id="g24">
     <path
   d="m 14047,11692 c -597,0 -1104,-125 -1621,-398 -516,-273 -888,-613 -1186,-1087 -298,-473 -434,-938 -434,-1484 0,-547 136,-1012 434,-1485 298,-474 670,-814 1186,-1087 517,-273 1024,-398 1620,-398 597,0 1104,125 1621,398 516,273 888,613 1186,1087 298,473 434,938 434,1484 0,547 -136,1012 -434,1485 -298,474 -670,814 -1186,1087 -517,273 -1024,398 -1620,398 l 0,0 z"
   id="path26"
   inkscape:connector-curvature="0"
   style="fill:#99ffcc;stroke:none" />
     <rect
   x="10806"
   y="5753"
   width="6482"
   height="5940"
   id="rect28"
   style="fill:none;stroke:none" />
    </g>
    <g
   id="g30">
     <path
   d="m 15271,16300 c -687,0 -1271,-142 -1865,-455 -595,-312 -1022,-701 -1365,-1242 -344,-541 -500,-1072 -500,-1696 0,-625 156,-1156 500,-1697 343,-541 770,-930 1365,-1242 594,-313 1178,-455 1864,-455 687,0 1271,142 1865,455 595,312 1022,701 1365,1242 344,541 500,1072 500,1696 0,625 -156,1156 -500,1697 -343,541 -770,930 -1365,1242 -594,313 -1178,455 -1864,455 l 0,0 z"
   id="path32"
   inkscape:connector-curvature="0"
   style="fill:#99ffcc;stroke:none" />
     <rect
   x="11541"
   y="9513"
   width="7460"
   height="6788"
   id="rect34"
   style="fill:none;stroke:none" />
    </g>
    <g
   id="g36">
     <path
   d="m 10744,16300 -4587,0 0,-7271 9173,0 0,7271 -4586,0 z"
   id="path38"
   inkscape:connector-curvature="0"
   style="fill:#99ffcc;stroke:none" />
     <rect
   x="6157"
   y="9029"
   width="9174"
   height="7272"
   id="rect40"
   style="fill:none;stroke:none" />
    </g>
   </g>
   <g
   id="g42">
    <rect
   x="5670"
   y="6604"
   width="9661"
   height="9213"
   id="rect44"
   style="fill:none;stroke:none" />
    <defs
   id="defs46">
     <radialGradient
   id="Gradient_1"
   gradientUnits="userSpaceOnUse"
   cx="10500.5"
   cy="11210.5"
   r="6674.8462">
      <stop
   offset="0"
   stop-color="rgb(255,255,204)"
   id="stop49" />
      <stop
   offset="0.8"
   stop-color="rgb(153,255,204)"
   id="stop51" />
     </radialGradient>
    </defs>
    <path
   id="Drawing_6_0"
   d="m 10500,15816 -327,-9 -317,-28 -308,-46 -300,-67 -295,-86 -291,-106 -289,-127 -288,-148 -279,-164 -260,-175 -242,-187 -225,-201 -210,-215 -196,-230 -184,-248 -172,-266 -155,-275 -134,-275 -111,-278 -90,-281 -69,-286 -49,-294 -29,-302 -10,-312 10,-312 29,-302 49,-294 69,-286 90,-281 111,-278 134,-275 155,-275 172,-266 184,-248 196,-230 210,-215 225,-201 242,-187 260,-175 279,-164 288,-148 289,-127 291,-106 295,-86 300,-67 308,-46 317,-28 327,-9 327,9 317,28 308,46 300,67 295,86 291,106 289,127 288,148 279,164 260,175 242,187 225,201 210,215 196,230 184,248 172,266 155,275 134,275 111,278 90,281 69,286 49,294 29,302 10,312 -10,312 -29,302 -49,294 -69,286 -90,281 -111,278 -134,275 -155,275 -172,266 -184,248 -196,230 -210,215 -225,201 -242,187 -260,175 -279,164 -288,148 -289,127 -291,106 -295,86 -300,67 -308,46 -317,28 -327,9 0,0 z"
   inkscape:connector-curvature="0"
   style="fill:url(#Gradient_1);stroke:none" />
   </g>
   <g
   id="g54">
    <path
   d="m 13362,8179 693,0 0,4527 1031,-774 0,128 -3955,3392 0,-241 1279,-1165 0,-1134 19,-366 13,-102 17,-102 22,-105 28,-106 -115,102 -122,105 -127,107 -136,112 -141,115 -149,119 -154,121 -161,126 -169,128 -175,130 -184,132 -190,132 -124,84 -73,-38 -206,-115 -212,-123 -219,-130 -472,-296 -441,-293 -208,-145 -200,-142 -193,-141 -183,-139 -176,-135 -169,-134 -161,-131 -152,-127 -145,-125 -136,-122 -129,-118 -120,-115 -113,-112 -105,-109 -98,-105 -91,-102 -160,-197 -131,-185 -103,-177 -71,-169 -45,-164 -14,-162 16,-148 20,-69 28,-66 36,-62 45,-60 52,-58 61,-55 69,-54 75,-52 86,-49 92,-48 102,-46 110,-45 118,-44 126,-43 134,-42 143,-40 152,-38 159,-37 170,-36 178,-34 186,-32 195,-30 205,-28 212,-25 220,-21 230,-19 238,-13 247,-10 254,-5 263,0 258,6 46,1 223,2 279,6 290,9 291,11 282,14 275,14 267,17 893,-185 z m -5542,1972 10,192 33,185 25,90 29,91 36,90 40,89 47,89 49,88 56,89 60,89 65,89 70,89 75,89 79,89 84,89 89,89 94,90 98,90 104,89 109,89 113,90 117,89 122,89 127,89 130,89 135,87 139,87 144,86 146,85 152,85 165,85 350,-198 139,-81 138,-82 137,-83 136,-84 521,-328 119,-78 111,-74 103,-70 94,-66 0,-3256 -217,-1 -232,1 -249,2 -264,5 -536,17 -260,12 -90,5 -165,-11 -161,-8 -155,-3 -151,1 -146,5 -139,10 -135,13 -128,17 -125,20 -119,23 -113,26 -109,31 -102,32 -97,36 -93,39 -87,42 -82,44 -149,97 -128,108 -109,117 -90,129 -70,140 -49,154 -30,168 -10,184 z"
   id="path56"
   inkscape:connector-curvature="0"
   style="fill:#ff6600;fill-opacity:0.69800002;stroke:#ffffff;stroke-opacity:0.69800002" />
    <rect
   x="6036"
   y="8179"
   width="9051"
   height="7274"
   id="rect58"
   style="fill:none;stroke:none" />
   </g>
  </g>
 </g>
</svg>